<?xml version="1.0" encoding="UTF-8"?>
<!DOCTYPE svg PUBLIC "-//W3C//DTD SVG 1.1//EN" "http://www.w3.org/Graphics/SVG/1.1/DTD/svg11.dtd">
<!-- Creator: CorelDRAW X8 -->
<svg xmlns="http://www.w3.org/2000/svg" xml:space="preserve" width="5.90381in" height="1.83487in" version="1.1" style="shape-rendering:geometricPrecision; text-rendering:geometricPrecision; image-rendering:optimizeQuality; fill-rule:evenodd; clip-rule:evenodd"
viewBox="0 0 923 287"
 xmlns:xlink="http://www.w3.org/1999/xlink">
 <defs>
  <style type="text/css">
   <![CDATA[
    .fil0 {fill:#FED430}
    .fil1 {fill:black;fill-rule:nonzero}
   ]]>
  </style>
 </defs>
 <g id="Layer_x0020_1">
  <metadata id="CorelCorpID_0Corel-Layer"/>
  <polygon class="fil0" points="0,38 912,0 923,249 10,287 "/>
  <path class="fil1" d="M279 121l13 0 9 22 6 -23 13 -1 -11 32 10 22 17 -54 15 -1 -25 70 -11 1 -14 -29 -10 30 -12 0 -31 -68 15 0 22 53 7 -23 -13 -31zm129 52l1 12 -48 2 -3 -69 47 -2 0 11 -33 2 0 17 30 -2 0 11 -29 1 1 18 34 -1zm27 -4c1,1 3,2 5,2 2,1 5,1 8,1 2,0 4,0 6,-1 2,-1 3,-3 4,-5 0,-2 1,-4 1,-7 0,-3 0,-7 0,-11l-2 -35 14 0 1 35c1,5 0,10 0,14 0,5 -1,8 -3,12 -2,3 -4,5 -7,7 -4,2 -8,3 -14,3 -6,0 -11,-1 -15,-4l2 -11zm67 -58l12 0 29 68 -13 0 -8 -16 -24 1 -5 17 -14 1 23 -71zm18 42l-11 -27 -9 28 20 -1zm31 26l-3 -70 29 -1c3,0 6,0 9,2 3,1 5,3 7,5 2,2 4,4 5,7 1,3 2,5 2,8 0,3 0,6 -1,9 -1,3 -3,5 -4,7 -2,2 -4,4 -7,6 -3,1 -5,2 -9,2l-16 1 1 23 -13 1zm11 -36l16 -1c3,0 5,-1 6,-3 2,-2 2,-5 2,-8 0,-2 0,-4 -1,-5 0,-1 -1,-3 -2,-3 -1,-1 -2,-2 -3,-3 -1,0 -2,0 -4,0l-15 1 1 22zm61 -37l12 0 29 68 -14 0 -7 -17 -24 1 -5 18 -14 0 23 -70zm17 42l-10 -27 -9 28 19 -1z"/>
 </g>
</svg>
